o Backboard

g Backboard
v 2.7 -1.575 0.075
v -2.7 -1.575 0.075
v -2.7 1.575 0.075
v 2.7 1.575 0.075
v -2.7 1.575 -0.08966306
v 2.7 1.575 -0.08966312
v -2.7 -1.575 -0.08966306
v 2.7 -1.575 -0.08966312

vt 1 0
vt 0 0
vt 0 1
vt 1 1
vt 1 0.9729705
vt 2.980232E-07 0.9729705
vt 2.980232E-07 0.9801545
vt 1 0.9801545
vt 1 0.007289593
vt 1.192093E-07 0.007289593
vt 1.192093E-07 0.01580896
vt 1 0.01580896
vt 0.9900088 4.768372E-07
vt 0.9831358 4.768372E-07
vt 0.9831358 1
vt 0.9900088 1
vt 0.01794719 5.960464E-07
vt 0.01196574 5.960464E-07
vt 0.01196574 1.000001
vt 0.01794719 1.000001

vn 0 0 1
vn 0 1 0
vn -1.10379E-08 0 -1
vn 0 -1 0
vn 1 0 0
vn -1 0 0

f 4/4/1 3/3/1 2/2/1 1/1/1
f 6/8/2 5/7/2 3/6/2 4/5/2
f 8/8/3 7/7/3 5/6/3 6/5/3
f 1/12/4 2/11/4 7/10/4 8/9/4
f 6/16/5 4/15/5 1/14/5 8/13/5
f 3/20/6 5/19/6 7/18/6 2/17/6

