o Pole

g Pole
v 0.1141268 5.147008 0.0370816
v 0.1141268 5.220792 0.1337294
v 0.12 5.268944 0.1337295
v 0.1141269 5.306026 0.5865695
v -1.760176E-10 5.268944 0.5865694
v 0.09705989 5.339478 0.5865695
v 0.07053427 5.366025 0.5865695
v 0.03708205 5.38307 0.5865694
v 5.784447E-09 5.388944 0.5865694
v -0.03708205 5.38307 0.5865694
v -0.07053425 5.366025 0.5865694
v -0.0971043 5.339478 0.5865694
v -0.1141268 5.306026 0.5865694
v -0.12 5.268944 0.5865694
v -0.1141268 5.231862 0.5865694
v -0.09710428 5.19841 0.5865694
v -0.07053425 5.171862 0.5865694
v -0.03708204 5.154817 0.5865694
v -1.760176E-10 5.148944 0.5865694
v 0.03708205 5.154817 0.5865694
v 0.07053424 5.171862 0.5865695
v 0.09708204 5.19841 0.5865695
v 0.1141268 5.220792 0.5865694
v 0.12 5.268944 0.5865695
v 0.07053427 -5.25 -0.09708252
v 0.03708205 5.147011 -0.1141269
v 0.03708206 -5.25 -0.1141269
v 0.07053427 5.147011 -0.09708252
v 0.0970821 -5.25 -0.07053406
v 0.0970821 5.147008 -0.07053406
v 0.1141269 -5.25 -0.0370816
v 0.1141268 5.147008 -0.0370816
v -0.09708206 -5.25 -0.07053406
v -0.1141268 5.14701 -0.0370816
v -0.1141268 -5.25 -0.0370816
v -0.09708207 5.147008 -0.07053406
v -0.07053426 -5.25 -0.09708252
v -0.07053427 5.14701 -0.09708252
v -0.03708206 -5.25 -0.1141269
v -0.03708206 5.14701 -0.1141269
v 0 -5.25 -0.12
v -5.364418E-09 5.14701 -0.12
v -0.07053424 -5.25 0.0970816
v -0.03708205 5.14701 0.1141269
v -0.03708205 -5.25 0.1141269
v -0.07053424 5.147008 0.09708252
v -0.09708206 -5.25 0.07053406
v -0.09708207 5.147011 0.07053406
v -0.1141268 -5.25 0.0370816
v -0.1141268 5.14701 0.0370816
v -0.12 -5.25 0
v -0.12 5.147008 0
v -7.152557E-09 5.147011 0.12
v -3.576279E-09 -5.25 0.12
v 0.03708205 5.147012 0.1141269
v 0.03708204 -5.25 0.1141269
v 0.07053423 5.147012 0.0970816
v 0.07053423 -5.25 0.0970816
v 0.09358326 5.138897 0.07228876
v 0.09708204 -5.25 0.07053406
v 0.1141268 -5.25 0.0370816
v 0.12 -5.25 0
v 0.12 5.14701 0
v 0.1141269 5.306026 0.1337295
v 0.09708209 5.339478 0.1337295
v 0.07053427 5.366025 0.1337295
v 0.03708204 5.38307 0.1337295
v 5.78445E-09 5.388944 0.1337296
v -0.03708205 5.38307 0.1337295
v -0.07053426 5.366025 0.1337296
v -0.09708206 5.339478 0.1337296
v -0.1141268 5.306026 0.1337294
v -0.1223449 5.267971 0.1325182
v 0 -5.25 0
v 0.1141268 5.220792 0.1334715
v 0.09710782 5.194322 0.1316769
v 0.07056359 5.16923 0.1309102
v 0.03709744 5.150915 0.1318929
v -0.1113014 5.235373 0.1310598
v -4.785973E-08 5.147977 0.1342697
v -0.09713371 5.189663 0.1255798
v -0.03709754 5.154075 0.1337931
v -0.0705637 5.168619 0.1365135
v 0.1141269 5.27428 0.02865149
v 0.1056045 5.291006 0.02865147
v 0.12 5.255739 0.0471923
v 0.1170634 5.27428 0.04719229
v 0.08380818 5.304279 0.01192526
v 0.07053427 5.304281 -0.00134898
v 0.09708209 5.291006 0.01192524
v -0.1056044 5.27428 0.01192522
v -0.1141268 5.27428 0.02865145
v -0.1182358 5.255252 0.02804586
v -0.07053426 5.30428 -0.001348932
v -0.08380817 5.291006 -0.001348928
v -0.05380816 5.30428 -0.009871121
v -0.03708206 5.312803 -0.009871161
v -0.01854103 5.312803 -0.01280771
v 0.03708205 5.312803 -0.009871135
v 0.01854103 5.31574 -0.00987113

vt 0.5999998 0.5004699
vt 0.5999998 0.6884398
vt 0.6124998 0.6884398
vt 0.6486026 0.8920339
vt 0.5 0.8375
vt 0.6264089 0.9355915
vt 0.5918415 0.9701589
vt 0.5482839 0.9923526
vt 0.5 1
vt 0.4517161 0.9923526
vt 0.4081585 0.9701589
vt 0.3735911 0.9355915
vt 0.3513974 0.8920339
vt 0.34375 0.84375
vt 0.3513974 0.7954661
vt 0.3735911 0.7519085
vt 0.4081585 0.7173411
vt 0.4517161 0.6951473
vt 0.5 0.6874999
vt 0.5482839 0.6951473
vt 0.5918415 0.717341
vt 0.626409 0.7519085
vt 0.6486027 0.7954661
vt 0.65625 0.84375
vt 0.4 0.3125
vt 0.4125 0.5004699
vt 0.4125 0.3125
vt 0.4 0.5004699
vt 0.3875 0.3125
vt 0.3875 0.5004699
vt 0.375 0.3125
vt 0.375 0.5004699
vt 0.4624999 0.3125
vt 0.4749999 0.5004699
vt 0.4749999 0.3125
vt 0.4624999 0.5004699
vt 0.4499999 0.3125
vt 0.4499999 0.5004699
vt 0.4374999 0.3125
vt 0.4374999 0.5004699
vt 0.425 0.3125
vt 0.425 0.5004699
vt 0.5249999 0.3125
vt 0.5374998 0.5004699
vt 0.5374998 0.3125
vt 0.5249999 0.5004699
vt 0.5124999 0.3125
vt 0.5124999 0.5004699
vt 0.4999999 0.3125
vt 0.4999999 0.5004699
vt 0.4874999 0.3125
vt 0.4874999 0.5004699
vt 0.5499998 0.5004699
vt 0.5499998 0.3125
vt 0.5624998 0.5004699
vt 0.5624998 0.3125
vt 0.5749998 0.5004699
vt 0.5749998 0.3125
vt 0.4278288 1.332838
vt 0.5874998 0.3125
vt 0.5999998 0.3125
vt 0.6124998 0.3125
vt 0.6249998 0.5004699
vt 0.6249998 0.3125
vt 0.6124998 0.5004699
vt 0.4242308 2.393315
vt 0.626409 0.0644085
vt 0.5 0.15
vt 0.6486027 0.1079661
vt 0.5918415 0.02984102
vt 0.65625 0.15625
vt 0.5482839 0.007647336
vt 0.6486026 0.2045339
vt 0.5 -7.450581E-08
vt 0.6264089 0.2480915
vt 0.4517161 0.00764735
vt 0.5918415 0.2826589
vt 0.4081585 0.02984105
vt 0.5482839 0.3048526
vt 0.3735911 0.06440853
vt 0.5 0.3125
vt 0.3513974 0.1079661
vt 0.4517161 0.3048526
vt 0.34375 0.15625
vt 0.4081585 0.2826589
vt 0.3513974 0.2045339
vt 0.3735911 0.2480915
vt -0.5865694 4.222681
vt -0.5865695 4.194548
vt -0.1334715 4.222681
vt -0.1316769 4.191311
vt 3.744518 0.6096228
vt 3.706973 0.6096228
vt 3.741645 0.1547209
vt 3.705133 0.1539608
vt 2.410801 0.6102442
vt 2.373256 0.6102441
vt 2.409632 0.1545788
vt 2.371499 0.1555556
vt 0.5874004 5.184624
vt 0.5874441 5.222168
vt 0.1318824 5.188179
vt 0.1334228 5.222101
vt 0.8429506 0.6296852
vt 0.8054063 0.6296852
vt 0.8423553 0.1749922
vt 0.8052551 0.1773936
vt 0.585598 4.679709
vt 0.5854325 4.717242
vt 0.1246299 4.669895
vt 0.1299719 4.717083
vt -0.8054067 0.5973074
vt -0.8429509 0.5973074
vt -0.8052555 0.1450067
vt -0.8428501 0.1445305
vt -3.705463 0.6051201
vt -3.743024 0.6051201
vt -3.703192 0.1550583
vt -3.736862 0.1441047
vt -2.373255 0.5933215
vt -2.4108 0.5933215
vt -2.372932 0.1405446
vt -2.409354 0.1432618
vt -1.451513 2.390701
vt -1.419292 2.409972
vt -1.45735 2.435285
vt -1.421206 2.430539
vt -0.3292282 1.841358
vt -0.292206 1.847598
vt -0.3296448 1.862251
vt -0.2922609 1.861355
vt 0.05531829 0.4673473
vt 0.09239822 0.4614608
vt 0.05532863 0.4816497
vt 0.09245554 0.4794497
vt 0.609107 1.201081
vt 0.6423518 1.183635
vt 0.6095562 1.219265
vt 0.6448512 1.221392
vt 1.784365 2.623299
vt 1.803384 2.594143
vt 1.791809 2.663081
vt 1.825205 2.671518
vt -3.227743 2.153803
vt -3.206749 2.18493
vt -3.253895 2.218342
vt -3.220003 2.227473
vt -0.01877349 4.735022
vt 0.01877102 4.735023
vt 0.06624408 4.832078
vt 0.06779353 4.784211
vt -0.01877353 5.078231
vt 0.01877031 5.078233
vt 0.1117461 5.201369
vt 0.1120333 5.167264
vt -0.05854335 4.57927
vt -0.06549704 4.548526
vt -0.0158243 4.484153
vt 0.07228876 5.007232
vt 0.1337294 5.091664
vt 0.1334715 5.091664
vt 0 0
vt 0.375 0.5944549
vt 0.38125 0.5944549
vt 0.375 0.6884398
vt 0.3875 0.6884398
vt 0.6124998 0.5944549
vt 0.6187497 0.5944549
vt 0.6249998 0.6884398
vt 0.6249998 0.5944549
vt 0.39375 0.5944549
vt 0.4 0.5944549
vt 0.4 0.6884398
vt 0.3875 0.5944549
vt 0.4687499 0.5944549
vt 0.4749999 0.5944549
vt 0.4749999 0.6884398
vt 0.4496154 1.446892
vt 0.4499999 0.5944549
vt 0.4562499 0.5944549
vt 0.4499999 0.6884398
vt 0.4624999 0.6884398
vt 0.4437499 0.5944549
vt 0.4374999 0.5944549
vt 0.4374999 0.6884398
vt 0.4312499 0.5944549
vt 0.4125 0.5944549
vt 0.41875 0.5944549
vt 0.4125 0.6884398
vt 0.425 0.6884398

vn 0.9608633 -0.1351373 0.2418257
vn 0.9232877 -0.305308 0.2330813
vn 0.999649 -0.006346865 0.02572005
vn -4.480005E-07 -2.285664E-07 1
vn 0.5877864 3.800395E-10 -0.8090162
vn 0.2458173 0.32757 -0.9122893
vn 0.3090113 1.1072E-10 -0.9510584
vn 0.5660872 0.2304938 -0.7914656
vn 0.8090214 1.282601E-10 -0.5877792
vn 0.7413719 0.2277251 -0.6312757
vn 0.951057 5.199196E-10 -0.3090155
vn 0.9114529 0.139606 -0.3869933
vn -0.8090216 -2.565204E-10 -0.5877789
vn -0.9399327 0.09966635 -0.326486
vn -0.9510567 5.02383E-10 -0.3090164
vn -0.8021965 0.1539686 -0.5768661
vn -0.5877867 -4.212126E-10 -0.809016
vn -0.5546925 0.2721545 -0.7862876
vn -0.3090113 -1.518928E-10 -0.9510583
vn -0.2932904 0.3170975 -0.9019035
vn 0 -6.242354E-12 -1
vn -0.0005547622 0.283502 -0.9589715
vn -0.587784 -5.15129E-08 0.8090178
vn -0.3090166 -2.001788E-08 0.9510567
vn -0.8090189 -1.667888E-08 0.5877826
vn -0.9510567 1.966882E-10 0.3090163
vn -1 1.79152E-10 4.526073E-08
vn -0.99934 0.01411827 -0.03346904
vn 0.3090219 -4.690631E-10 0.9510549
vn 0.6024296 -2.065029E-10 0.7981719
vn 0.5951225 3.009366E-05 0.8036349
vn 0.8261602 -0.1633086 0.5392491
vn 0.8005401 0.0001119523 0.5992792
vn 0.9510568 0 0.3090163
vn 1 1.791521E-10 9.353883E-07
vn 0.9970574 0.03271928 -0.06932507
vn 0.8908857 0.4542274 2.185031E-05
vn 0.8910053 0.4539929 4.368596E-05
vn 0.7072495 0.706964 1.733601E-05
vn 0.7071015 0.707112 -1.163395E-08
vn 0.4539859 0.8910089 -9.336794E-09
vn 0.1564589 0.9876845 -1.930665E-09
vn -0.1564588 0.9876845 -4.603061E-16
vn -0.4539862 0.8910087 3.73472E-09
vn -0.7069538 0.7072598 -1.735205E-05
vn -0.7071018 0.7071118 -3.471573E-05
vn -0.8911254 0.4537571 -2.18782E-05
vn -0.9825882 0.1836878 0.002297909
vn -0.9876884 0.156434 0
vn -0.9774879 0.2109416 0.004595818
vn 0.9926432 -0.1210765 8.165986E-09
vn 0.9876888 0.1564317 8.881784E-16
vn 0 -1 0
vn 0.795576 -0.6058539 2.616434E-08
vn 0.818279 -0.5734474 0.002454894
vn 0.840982 -0.541041 0.004909763
vn 0.7071001 -0.7070846 0.006394338
vn 0.6969897 -0.7169219 0.005317997
vn 0.6868793 -0.7267591 0.004241656
vn 0.4539802 -0.8909968 0.005175207
vn 0.467111 -0.8840503 0.006359769
vn 0.4802417 -0.8771037 0.007544332
vn -0.9876619 -0.1564298 -0.007332098
vn -0.9673476 -0.2387585 -0.0008765953
vn -0.9470332 -0.3210872 0.005578908
vn 0.156416 -0.9876549 0.008482219
vn 0.1177414 -0.9922609 0.005306766
vn 0.07906683 -0.9968671 0.002131313
vn -0.8912089 -0.4535104 0.008662081
vn -0.923313 -0.3743278 0.000230331
vn -0.9554172 -0.2951452 -0.008201419
vn -0.1564214 -0.9876882 0.002111713
vn -0.1593185 -0.9872211 0.001867124
vn -0.1622157 -0.986754 0.001622534
vn -0.7068093 -0.7073855 0.005142715
vn -0.66568 -0.7441143 0.009999392
vn -0.6245507 -0.780843 0.01485607
vn -0.4539856 -0.8910078 0.001475625
vn -0.4260497 -0.9041599 0.004055292
vn -0.3981139 -0.917312 0.006634959
vn -0.2377412 -0.8518634 0.4666988
vn -0.2971237 -0.8656154 0.3911598
vn -0.3565063 -0.8793673 0.3156208
vn -0.05343962 -0.9397846 0.3375636
vn -0.1080542 -0.962106 0.2021049
vn -0.1626687 -0.9844274 0.06664611
vn 0.01072311 -0.9976588 0.06754239
vn 0.05071235 -0.9851819 0.1405631
vn 0.09070159 -0.9727051 0.2135838
vn 0.1086261 -0.9709547 0.2131838
vn 0.2683453 -0.8632603 0.354524
vn 0.4280645 -0.7555658 0.4958641
vn 0.2838145 -0.8015894 0.5262164
vn 0.4261625 -0.709796 0.5346173
vn 0.5685104 -0.6180026 0.5430182
vn -0.5221467 -0.6743995 0.5220615
vn -0.5939712 -0.6644588 0.4401412
vn -0.6657957 -0.6545181 0.3582209
vn -0.8111959 -0.4136627 0.4133332
vn -0.8646784 -0.363636 0.3277344
vn -0.9181609 -0.3136093 0.2421355
vn -0.9702315 -0.1871709 0.1536812
vn -0.9308162 -0.2518374 0.2390362
vn -0.8914009 -0.3165039 0.3243912
vn 0.7456851 -0.5086187 0.4304194
vn -0.9699477 0.2433137 0
vn NaN NaN NaN
vn 0 0 0
vn 0.8929242 0.3482034 -0.2853781
vn 0.7859644 0.4698521 -0.4018693
vn 0.9275257 0.3598998 -0.1008374
vn 0.7305211 0.639398 -0.2398106
vn 0.9919693 0.08264803 -0.09574037
vn 0.9621607 0.214911 -0.1675112
vn 0.5657144 0.6185428 -0.5453183
vn 0.4418986 0.679088 -0.5861443
vn 0.4849872 0.7987995 -0.3559591
vn 0.6796402 0.5619349 -0.4715065
vn -0.7161843 0.562631 -0.4129484
vn -0.8645821 0.3959127 -0.3094365
vn -0.7952948 0.5736367 -0.1960795
vn -0.9692587 0.1559037 -0.1903459
vn -0.9912632 0.1204923 -0.05365594
vn -0.459138 0.6596932 -0.5949767
vn -0.6697764 0.5413781 -0.5082414
vn -0.4424646 0.812184 -0.3802395
vn -0.7778465 0.5633337 -0.2785856
vn -0.3347921 0.7030781 -0.6273718
vn -0.2305315 0.7212648 -0.653171
vn -0.1938266 0.8790752 -0.4354975
vn -0.04194686 0.7457444 -0.6649103
vn 0.2506074 0.7204397 -0.6466549
vn 0.04243272 0.7391324 -0.6722223
vn 0.2814236 0.8619272 -0.4217609
vn 0.001145275 0.8909758 -0.4540493

f 3/3/3 2/2/2 1/1/1
f 6/6/4 5/5/4 4/4/4
f 7/7/4 5/5/4 6/6/4
f 8/8/4 5/5/4 7/7/4
f 9/9/4 5/5/4 8/8/4
f 10/10/4 5/5/4 9/9/4
f 11/11/4 5/5/4 10/10/4
f 12/12/4 5/5/4 11/11/4
f 13/13/4 5/5/4 12/12/4
f 14/14/4 5/5/4 13/13/4
f 15/15/4 5/5/4 14/14/4
f 16/16/4 5/5/4 15/15/4
f 17/17/4 5/5/4 16/16/4
f 18/18/4 5/5/4 17/17/4
f 19/19/4 5/5/4 18/18/4
f 20/20/4 5/5/4 19/19/4
f 21/21/4 5/5/4 20/20/4
f 22/22/4 5/5/4 21/21/4
f 23/23/4 5/5/4 22/22/4
f 24/24/4 5/5/4 23/23/4
f 4/4/4 5/5/4 24/24/4
f 1/1/1 2/2/2 59/59/32
f 31/69/53 74/68/53 29/67/53
f 33/80/53 74/68/53 35/82/53
f 75/156/105 76/157/105 59/158/105
f 2/160/106 75/161/106 59/159/106
f 2/162/108 23/162/108 75/162/108
f 85/164/110 84/163/109 32/32/12
f 87/168/114 86/167/113 63/65/36
f 84/170/109 64/169/111 87/168/114
f 89/172/116 66/173/117 88/171/115
f 88/171/115 90/174/118 30/30/10
f 90/174/118 65/166/112 85/164/110
f 92/176/120 72/177/121 91/175/119
f 93/178/122 92/176/120 34/34/14
f 95/180/125 94/179/124 38/38/18
f 94/179/124 70/181/126 96/183/128
f 96/183/128 97/184/129 40/40/20
f 97/184/129 69/185/130 98/186/131
f 100/188/133 99/187/132 26/26/6
f 25/25/5 27/27/7 26/26/6
f 26/26/6 28/28/8 25/25/5
f 29/29/9 25/25/5 28/28/8
f 28/28/8 30/30/10 29/29/9
f 31/31/11 29/29/9 30/30/10
f 30/30/10 32/32/12 31/31/11
f 33/33/13 35/35/15 34/34/14
f 34/34/14 36/36/16 33/33/13
f 37/37/17 33/33/13 36/36/16
f 36/36/16 38/38/18 37/37/17
f 39/39/19 37/37/17 38/38/18
f 38/38/18 40/40/20 39/39/19
f 41/41/21 39/39/19 40/40/20
f 40/40/20 42/42/22 41/41/21
f 27/27/7 41/41/21 42/42/22
f 42/42/22 26/26/6 27/27/7
f 43/43/23 45/45/24 44/44/24
f 44/44/24 46/46/23 43/43/23
f 47/47/25 43/43/23 46/46/23
f 46/46/23 48/48/25 47/47/25
f 49/49/26 47/47/25 48/48/25
f 48/48/25 50/50/26 49/49/26
f 51/51/27 49/49/26 50/50/26
f 50/50/26 52/52/28 51/51/27
f 35/35/15 51/51/27 52/52/28
f 52/52/28 34/34/14 35/35/15
f 53/53/4 44/44/24 45/45/24
f 45/45/24 54/54/4 53/53/4
f 55/55/29 53/53/4 54/54/4
f 54/54/4 56/56/29 55/55/29
f 57/57/30 55/55/29 56/56/29
f 56/56/29 58/58/31 57/57/30
f 59/59/32 57/57/30 58/58/31
f 58/58/31 60/60/33 59/59/32
f 1/1/1 59/59/32 60/60/33
f 60/60/33 61/61/34 1/1/1
f 62/62/35 31/64/11 32/63/12
f 32/63/12 63/65/36 62/62/35
f 61/61/34 62/62/35 63/65/36
f 63/65/36 1/1/1 61/61/34
f 6/6/37 4/4/37 64/4/37
f 64/4/37 65/6/38 6/6/37
f 7/7/39 6/6/39 65/6/39
f 65/6/39 66/7/40 7/7/39
f 8/8/41 7/7/41 66/7/41
f 66/7/41 67/8/41 8/8/41
f 9/9/42 8/8/42 67/8/42
f 67/8/42 68/9/42 9/9/42
f 10/10/43 9/9/43 68/9/43
f 68/9/43 69/10/43 10/10/43
f 11/11/44 10/10/44 69/10/44
f 69/10/44 70/11/44 11/11/44
f 12/12/45 11/11/45 70/11/45
f 70/11/45 71/12/46 12/12/45
f 13/13/47 12/12/47 71/12/47
f 71/12/47 72/13/47 13/13/47
f 14/14/48 13/13/49 72/13/48
f 72/13/48 73/66/50 14/14/48
f 24/24/51 23/23/51 2/23/51
f 2/23/51 3/24/51 24/24/51
f 4/4/52 24/24/52 3/24/52
f 3/24/52 64/4/52 4/4/52
f 25/70/53 29/67/53 74/68/53
f 74/68/53 27/72/53 25/70/53
f 61/73/53 74/68/53 31/69/53
f 31/69/53 62/71/53 61/73/53
f 41/74/53 27/72/53 74/68/53
f 74/68/53 39/76/53 41/74/53
f 58/77/53 74/68/53 61/73/53
f 61/73/53 60/75/53 58/77/53
f 37/78/53 39/76/53 74/68/53
f 74/68/53 33/80/53 37/78/53
f 54/81/53 74/68/53 58/77/53
f 58/77/53 56/79/53 54/81/53
f 43/85/53 74/68/53 54/81/53
f 54/81/53 45/83/53 43/85/53
f 51/84/53 35/82/53 74/68/53
f 74/68/53 49/86/53 51/84/53
f 49/86/53 74/68/53 43/85/53
f 43/85/53 47/87/53 49/86/53
f 75/90/55 23/88/54 22/89/55
f 22/89/55 76/91/56 75/90/55
f 76/94/58 22/92/57 21/93/58
f 21/93/58 77/95/59 76/94/58
f 77/98/61 21/96/60 20/97/61
f 20/97/61 78/99/62 77/98/61
f 79/102/64 15/100/63 14/101/64
f 14/101/64 73/103/65 79/102/64
f 78/106/67 20/104/66 19/105/67
f 19/105/67 80/107/68 78/106/67
f 81/110/70 16/108/69 15/109/70
f 15/109/70 79/111/71 81/110/70
f 80/114/73 19/112/72 18/113/73
f 18/113/73 82/115/74 80/114/73
f 83/118/76 17/116/75 16/117/76
f 16/117/76 81/119/77 83/118/76
f 82/122/79 18/120/78 17/121/79
f 17/121/79 83/123/80 82/122/79
f 83/126/82 46/124/81 44/125/82
f 44/125/82 82/127/83 83/126/82
f 82/130/85 44/128/84 53/129/85
f 53/129/85 80/131/86 82/130/85
f 80/134/88 53/132/87 55/133/88
f 55/133/88 78/135/89 80/134/88
f 78/138/91 55/136/90 57/137/91
f 57/137/91 77/139/92 78/138/91
f 77/142/94 57/140/93 59/141/94
f 59/141/94 76/143/95 77/142/94
f 81/146/97 48/144/96 46/145/97
f 46/145/97 83/147/98 81/146/97
f 79/150/100 50/148/99 48/149/100
f 48/149/100 81/151/101 79/150/100
f 73/154/103 52/152/102 50/153/103
f 50/153/103 79/155/104 73/154/103
f 84/163/109 85/164/110 65/166/112
f 65/166/112 64/165/111 84/163/109
f 86/167/113 87/168/114 64/169/111
f 64/169/111 3/3/3 86/167/113
f 87/168/114 63/65/36 32/63/12
f 32/63/12 84/170/109 87/168/114
f 30/30/10 28/28/8 89/172/116
f 89/172/116 88/171/115 30/30/10
f 88/171/115 66/173/117 65/166/112
f 65/166/112 90/174/118 88/171/115
f 85/164/110 32/32/12 30/30/10
f 30/30/10 90/174/118 85/164/110
f 34/34/14 92/176/120 91/175/119
f 91/175/119 36/36/16 34/34/14
f 92/176/120 93/178/122 73/66/123
f 73/66/123 72/177/121 92/176/120
f 70/181/126 94/179/124 95/180/125
f 95/180/125 71/182/127 70/181/126
f 96/183/128 40/40/20 38/38/18
f 38/38/18 94/179/124 96/183/128
f 69/185/130 97/184/129 96/183/128
f 96/183/128 70/181/126 69/185/130
f 40/40/20 97/184/129 98/186/131
f 98/186/131 42/42/22 40/40/20
f 99/187/132 100/188/133 68/190/135
f 68/190/135 67/189/134 99/187/132
f 52/52/28 73/66/123 93/178/122
f 93/178/122 34/34/14 52/52/28
f 3/3/3 1/1/1 63/65/36
f 63/65/36 86/167/113 3/3/3
f 99/187/132 67/189/134 66/173/117
f 66/173/117 89/172/116 99/187/132
f 28/28/8 26/26/6 99/187/132
f 99/187/132 89/172/116 28/28/8
f 71/182/127 95/180/125 91/175/119
f 91/175/119 72/177/121 71/182/127
f 38/38/18 36/36/16 91/175/119
f 91/175/119 95/180/125 38/38/18
f 100/188/133 98/186/131 69/185/130
f 69/185/130 68/190/135 100/188/133
f 26/26/6 42/42/22 98/186/131
f 98/186/131 100/188/133 26/26/6

